<?xml version="1.0" encoding="utf-8"?>
<!-- Generator: Adobe Illustrator 24.1.1, SVG Export Plug-In . SVG Version: 6.00 Build 0)  -->
<svg version="1.1" id="Layer_1" xmlns="http://www.w3.org/2000/svg" xmlns:xlink="http://www.w3.org/1999/xlink" x="0px" y="0px"
	 viewBox="0 0 700 700" style="enable-background:new 0 0 700 700;" xml:space="preserve">
<style type="text/css">
	.st0{fill:#3C3C3B;stroke:#DADADA;stroke-width:23.8934;stroke-miterlimit:10;}
	.st1{fill:none;stroke:#3198C8;stroke-width:4.7787;stroke-miterlimit:10;}
	.st2{fill:none;stroke:#DEDC00;stroke-width:4.7787;stroke-miterlimit:10;}
	.st3{fill:#009FE3;}
	.st4{font-family:'ArialMT';}
	.st5{font-size:51.1796px;}
	.st6{fill:none;stroke:#3198C8;stroke-width:2.3893;stroke-miterlimit:10;}
	.st7{font-size:50.9051px;}
	.st8{font-size:51.4043px;}
	.st9{fill:none;stroke:#3198C8;stroke-width:2.3998;stroke-miterlimit:10.0439;}
	.st10{font-size:51.1028px;}
	.st11{font-size:51.3941px;}
	.st12{fill:none;stroke:#3198C8;stroke-width:2.3994;stroke-miterlimit:10.0419;}
	.st13{font-size:51.3967px;}
	.st14{fill:none;stroke:#3198C8;stroke-width:2.3995;stroke-miterlimit:10.0424;}
	.st15{font-size:52.4101px;}
	.st16{fill:none;stroke:#3198C8;stroke-width:2.4252;}
	.st17{fill:none;stroke:#3198C8;stroke-width:2.4252;stroke-miterlimit:10;}
	.st18{font-size:52.5488px;}
	.st19{fill:none;stroke:#3198C8;stroke-width:2.4316;stroke-miterlimit:10.0265;}
	.st20{font-size:52.2238px;}
	.st21{fill:none;stroke:#3198C8;stroke-width:2.4166;stroke-miterlimit:9.9644;}
	.st22{font-size:52.0736px;}
	.st23{fill:none;stroke:#3198C8;stroke-width:2.4096;stroke-miterlimit:9.9358;}
</style>
<ellipse transform="matrix(0.7071 -0.7071 0.7071 0.7071 -143.6564 350.3528)" class="st0" cx="351.1" cy="348.6" rx="331.9" ry="331.9"/>
<ellipse transform="matrix(0.7071 -0.7071 0.7071 0.7071 -143.6564 350.3528)" class="st1" cx="351.1" cy="348.6" rx="331.9" ry="331.9"/>
<circle class="st2" cx="258.9" cy="398.7" r="106.5"/>
<circle class="st2" cx="258.9" cy="292.2" r="106.5"/>
<path class="st2" d="M457.6,449.2c0,58.8-47.7,106.5-106.5,106.5c-58.8,0-106.5-47.7-106.5-106.5c0-58.8,47.7-106.5,106.5-106.5
	c0,0,0,0,0,0C409.9,342.7,457.6,390.4,457.6,449.2C457.6,449.2,457.6,449.2,457.6,449.2z"/>
<path class="st2" d="M457.6,342.7c0,58.8-47.7,106.5-106.5,106.5c-58.8,0-106.5-47.7-106.5-106.5c0-58.8,47.7-106.5,106.5-106.5
	c0,0,0,0,0,0C409.9,236.2,457.6,283.9,457.6,342.7z"/>
<path class="st2" d="M457.6,236.2c0,58.8-47.7,106.5-106.5,106.5c-58.8,0-106.5-47.7-106.5-106.5c0-58.8,47.7-106.5,106.5-106.5
	c0,0,0,0,0,0C409.9,129.7,457.6,177.4,457.6,236.2L457.6,236.2z"/>
<path class="st2" d="M548.2,398.7c0,58.8-47.7,106.5-106.5,106.5c-58.8,0-106.5-47.7-106.5-106.5c0-58.8,47.7-106.5,106.5-106.5
	c0,0,0,0,0,0C500.5,292.2,548.2,339.9,548.2,398.7C548.2,398.7,548.2,398.7,548.2,398.7z"/>
<path class="st2" d="M548.2,292.2c0,58.8-47.7,106.5-106.5,106.5c-58.8,0-106.5-47.7-106.5-106.5c0-58.8,47.7-106.5,106.5-106.5
	c0,0,0,0,0,0C500.5,185.7,548.2,233.4,548.2,292.2L548.2,292.2z"/>
<ellipse transform="matrix(0.7071 -0.7071 0.7071 0.7071 -139.765 347.9643)" class="st2" cx="350.1" cy="342.7" rx="217.8" ry="217.8"/>
<text transform="matrix(0.341 -0.9401 0.9401 0.341 106.7607 273.376)" class="st3 st4 st5">C</text>
<text transform="matrix(0.341 -0.9401 0.9401 0.341 106.7607 273.376)" class="st6 st4 st5">C</text>
<text transform="matrix(0.456 -0.89 0.89 0.456 117.6936 244.0114)" class="st3 st4 st5">E</text>
<text transform="matrix(0.456 -0.89 0.89 0.456 117.6936 244.0114)" class="st6 st4 st5">E</text>
<text transform="matrix(0.5726 -0.8199 0.8199 0.5726 131.9778 216.2932)" class="st3 st4 st5">N</text>
<text transform="matrix(0.5726 -0.8199 0.8199 0.5726 131.9778 216.2932)" class="st6 st4 st5">N</text>
<text transform="matrix(0.6802 -0.733 0.733 0.6802 153.5054 186.2105)" class="st3 st4 st5">T</text>
<text transform="matrix(0.6802 -0.733 0.733 0.6802 153.5054 186.2105)" class="st6 st4 st5">T</text>
<text transform="matrix(0.7701 -0.638 0.638 0.7701 176.0028 162.3073)" class="st3 st4 st5">R</text>
<text transform="matrix(0.7701 -0.638 0.638 0.7701 176.0028 162.3073)" class="st6 st4 st5">R</text>
<text transform="matrix(0.845 -0.5348 0.5348 0.845 202.1187 141.1142)" class="st3 st4 st5">E</text>
<text transform="matrix(0.845 -0.5348 0.5348 0.845 202.1187 141.1142)" class="st6 st4 st5">E</text>
<text transform="matrix(0.954 -0.2999 0.2999 0.954 260.0599 110.3403)" class="st3 st4 st5">F</text>
<text transform="matrix(0.954 -0.2999 0.2999 0.954 260.0599 110.3403)" class="st6 st4 st5">F</text>
<text transform="matrix(0.9953 -0.181 0.1709 0.9853 289.9742 101.1281)" class="st3 st4 st7">O</text>
<text transform="matrix(0.9953 -0.181 0.1709 0.9853 289.9742 101.1281)" class="st6 st4 st7">O</text>
<text transform="matrix(0.9991 -4.274753e-02 4.274753e-02 0.9991 323.0905 95.5253)" class="st3 st4 st5">R</text>
<text transform="matrix(0.9991 -4.274753e-02 4.274753e-02 0.9991 323.0905 95.5253)" class="st6 st4 st5">R</text>
<text transform="matrix(0.9757 0.219 -0.219 0.9757 390.9833 97.7358)" class="st3 st4 st8">A</text>
<text transform="matrix(0.9757 0.219 -0.219 0.9757 390.9833 97.7358)" class="st9 st4 st8">A</text>
<text transform="matrix(0.934 0.3574 -0.3574 0.934 424.5531 105.5603)" class="st3 st4 st5">N</text>
<text transform="matrix(0.934 0.3574 -0.3574 0.934 424.5531 105.5603)" class="st6 st4 st5">N</text>
<text transform="matrix(0.8813 0.4907 -0.4907 0.8713 459.8448 119.5746)" class="st3 st4 st10">A</text>
<text transform="matrix(0.8813 0.4907 -0.4907 0.8713 459.8448 119.5746)" class="st6 st4 st10">A</text>
<text transform="matrix(0.81 0.6 -0.6 0.8 489.7935 136.7873)" class="st3 st4 st5">L</text>
<text transform="matrix(0.81 0.6 -0.6 0.8 489.7935 136.7873)" class="st6 st4 st5">L</text>
<text transform="matrix(0.717 0.6971 -0.6971 0.717 515.1235 155.964)" class="st3 st4 st11">Y</text>
<text transform="matrix(0.717 0.6971 -0.6971 0.717 515.1235 155.964)" class="st12 st4 st11">Y</text>
<text transform="matrix(0.6174 0.7867 -0.7867 0.6174 539.6372 180.2988)" class="st3 st4 st13">T</text>
<text transform="matrix(0.6174 0.7867 -0.7867 0.6174 539.6372 180.2988)" class="st14 st4 st13">T</text>
<text transform="matrix(0.5433 0.8395 -0.8395 0.5433 560.1255 207.6335)" class="st3 st4 st5">I</text>
<text transform="matrix(0.5433 0.8395 -0.8395 0.5433 560.1255 207.6335)" class="st6 st4 st5">I</text>
<text transform="matrix(0.4604 0.8877 -0.8877 0.4604 567.8185 219.2572)" class="st3 st4 st5">C</text>
<text transform="matrix(0.4604 0.8877 -0.8877 0.4604 567.8185 219.2572)" class="st6 st4 st5">C</text>
<text transform="matrix(0.3422 0.9396 -0.9396 0.3422 582.0715 247.1522)" class="st3 st4 st5">S</text>
<text transform="matrix(0.3422 0.9396 -0.9396 0.3422 582.0715 247.1522)" class="st6 st4 st5">S</text>
<text transform="matrix(0.1915 0.9815 -0.9815 0.1915 65.4594 384.0374)" class="st3 st4 st15">&amp;</text>
<text transform="matrix(0.1915 0.9815 -0.9815 0.1915 65.4594 384.0374)" class="st16 st4 st15">&amp;</text>
<text transform="matrix(0.421 0.907 -0.907 0.421 83.727 452.72)" class="st3 st4 st15">B</text>
<text transform="matrix(0.421 0.907 -0.907 0.421 83.727 452.72)" class="st17 st4 st15">B</text>
<text transform="matrix(0.5514 0.8343 -0.8343 0.5514 103.2707 492.1438)" class="st3 st4 st15">E</text>
<text transform="matrix(0.5514 0.8343 -0.8343 0.5514 103.2707 492.1438)" class="st17 st4 st15">E</text>
<text transform="matrix(0.6699 0.7424 -0.7424 0.6699 126.9857 526.3124)" class="st3 st4 st15">H</text>
<text transform="matrix(0.6699 0.7424 -0.7424 0.6699 126.9857 526.3124)" class="st17 st4 st15">H</text>
<text transform="matrix(0.7779 0.6283 -0.6283 0.7779 157.3313 558.3283)" class="st3 st4 st18">A</text>
<text transform="matrix(0.7779 0.6283 -0.6283 0.7779 157.3313 558.3283)" class="st19 st4 st18">A</text>
<text transform="matrix(0.8666 0.4989 -0.4989 0.8666 192.1415 585.3992)" class="st3 st4 st15">V</text>
<text transform="matrix(0.8666 0.4989 -0.4989 0.8666 192.1415 585.3992)" class="st17 st4 st15">V</text>
<text transform="matrix(0.9191 0.3939 -0.3939 0.9191 234.4824 607.9297)" class="st3 st4 st15">I</text>
<text transform="matrix(0.9191 0.3939 -0.3939 0.9191 234.4824 607.9297)" class="st17 st4 st15">I</text>
<text transform="matrix(0.9568 0.2907 -0.2907 0.9568 252.5448 615.6008)" class="st3 st4 st15">O</text>
<text transform="matrix(0.9568 0.2907 -0.2907 0.9568 252.5448 615.6008)" class="st17 st4 st15">O</text>
<text transform="matrix(0.9902 0.1399 -0.1399 0.9902 295.0514 627.3925)" class="st3 st4 st15">U</text>
<text transform="matrix(0.9902 0.1399 -0.1399 0.9902 295.0514 627.3925)" class="st17 st4 st15">U</text>
<text transform="matrix(0.9999 -1.361315e-02 1.361315e-02 0.9999 338.7999 632.4797)" class="st3 st4 st15">R</text>
<text transform="matrix(0.9999 -1.361315e-02 1.361315e-02 0.9999 338.7999 632.4797)" class="st17 st4 st15">R</text>
<text transform="matrix(0.9862 -0.1657 0.1657 0.9862 382.8476 630.81)" class="st3 st4 st15">A</text>
<text transform="matrix(0.9862 -0.1657 0.1657 0.9862 382.8476 630.81)" class="st17 st4 st15">A</text>
<text transform="matrix(0.9513 -0.3084 0.3084 0.9513 425.9152 622.4332)" class="st3 st4 st15">L</text>
<text transform="matrix(0.9513 -0.3084 0.3084 0.9513 425.9152 622.4332)" class="st17 st4 st15">L</text>
<text transform="matrix(0.853 -0.5219 0.5219 0.853 488.7079 597.0953)" class="st3 st4 st20">C</text>
<text transform="matrix(0.853 -0.5219 0.5219 0.853 488.7079 597.0953)" class="st21 st4 st20">C</text>
<text transform="matrix(0.7649 -0.6441 0.6441 0.7649 523.6998 574.5034)" class="st3 st4 st22">H</text>
<text transform="matrix(0.7649 -0.6441 0.6441 0.7649 523.6998 574.5034)" class="st23 st4 st22">H</text>
<text transform="matrix(0.6563 -0.7545 0.7545 0.6563 556.708 545.2581)" class="st3 st4 st15">A</text>
<text transform="matrix(0.6563 -0.7545 0.7545 0.6563 556.708 545.2581)" class="st17 st4 st15">A</text>
<text transform="matrix(0.5158 -0.8567 0.8567 0.5158 585.1782 511.3898)" class="st3 st4 st15">N</text>
<text transform="matrix(0.5158 -0.8567 0.8567 0.5158 585.1782 511.3898)" class="st17 st4 st15">N</text>
<text transform="matrix(0.3878 -0.9217 0.9217 0.3878 609.1076 470.1389)" class="st3 st4 st15">G</text>
<text transform="matrix(0.3878 -0.9217 0.9217 0.3878 609.1076 470.1389)" class="st17 st4 st15">G</text>
<text transform="matrix(0.246 -0.9693 0.9693 0.246 625.1043 429.2202)" class="st3 st4 st15">E</text>
<text transform="matrix(0.246 -0.9693 0.9693 0.246 625.1043 429.2202)" class="st17 st4 st15">E</text>
</svg>
